<svg version="1.1" xmlns="http://www.w3.org/2000/svg" xmlns:xlink="http://www.w3.org/1999/xlink" width="96px" height="96px" viewBox="0,0,256,256"><g fill="none" fill-rule="nonzero" stroke="none" stroke-width="1" stroke-linecap="butt" stroke-linejoin="miter" stroke-miterlimit="10" stroke-dasharray="" stroke-dashoffset="0" font-family="none" font-weight="none" font-size="none" text-anchor="none" style="mix-blend-mode: normal"><g transform="scale(2.66667,2.66667)"><g><path d="M72.45,87.48c-17.93034,4.43013 -36.69091,4.24435 -54.53,-0.54c-0.77996,-0.21465 -1.4331,-0.74849 -1.79868,-1.47013c-0.36558,-0.72164 -0.40963,-1.56404 -0.12132,-2.31987c24.47,-65.15 20,-53.22 25.21,-67.1c0.55844,-1.47892 1.97416,-2.45762 3.555,-2.45762c1.58084,0 2.99656,0.97871 3.555,2.45762c29,75.07 16.88,43.8 26.1,67.63c0.28707,0.76401 0.23651,1.61394 -0.13913,2.33852c-0.37564,0.72458 -1.04106,1.25575 -1.83087,1.46148z" fill="#2810b9"></path><path d="M59.24,75.47c0.47246,2.24429 -0.88702,4.46769 -3.1,5.07c-7.27753,1.90882 -14.94208,1.75996 -22.14,-0.43c-2.14051,-0.64269 -3.44022,-2.80887 -3,-5l11.75,-59c0.74,-3.27 3.54,-3.29 4.31,0z" fill="#7f99dc"></path><path d="M50.39,34.78c-0.52931,-0.33508 -1.19894,-0.35588 -1.74803,-0.0543c-0.54909,0.30158 -0.89078,0.87785 -0.89197,1.5043v38c-0.00667,2.04177 0.93773,3.97023 2.55479,5.21683c1.61705,1.2466 3.72235,1.66919 5.69521,1.14317c2.29012,-0.56431 3.73652,-2.82403 3.29,-5.14l-8.14,-39.58c-0.09277,-0.45234 -0.36764,-0.84655 -0.76,-1.09z" fill="#9dc1ff"></path><path d="M76.62,90.45c-20.59837,5.7466 -42.40307,5.54204 -62.89,-0.59c-2.08487,-0.62684 -3.26684,-2.82513 -2.64,-4.91c0.62684,-2.08487 2.82513,-3.26684 4.91,-2.64c19.06358,5.6817 39.34299,5.87233 58.51,0.55c2.09592,-0.58542 4.26958,0.63908 4.855,2.735c0.58542,2.09592 -0.63908,4.26958 -2.735,4.855z" fill="#c5e9ff"></path><path d="M57.82,90.39c0.0063,2.09353 -1.60276,3.83776 -3.69,4c-5.96153,0.41942 -11.94692,0.36592 -17.9,-0.16c-2.06746,-0.18681 -3.64842,-1.92414 -3.64,-4c-0.00158,-1.10414 0.46139,-2.15801 1.27562,-2.90376c0.81424,-0.74575 1.90462,-1.11458 3.00438,-1.01624c5.56735,0.49065 11.16475,0.54081 16.74,0.15c1.0899,-0.07785 2.16302,0.30157 2.96177,1.04719c0.79875,0.74562 1.25101,1.79013 1.24823,2.88281z" fill="#93b2ff"></path><path d="M70.71,74.06c-16.98861,1.9539 -33.77542,-5.04092 -44.35,-18.48l10.52,-28c5.47425,9.42207 13.91306,16.76735 24,20.89z" fill="#a7c1ff"></path><path d="M58.94,74c-9.38527,-1.16825 -18.23326,-5.02276 -25.48,-11.1l6.18,-31.08c3.59754,4.95029 8.0837,9.18892 13.23,12.5z" fill="#c5e9ff"></path><path d="M58.94,74c-3.82646,-0.47187 -7.58299,-1.39841 -11.19,-2.76v-30.71c1.62228,1.37047 3.33261,2.63317 5.12,3.78z" fill="#edffff"></path><path d="M46.25,2l2.39,4.85c0.17139,0.34236 0.50067,0.57809 0.88,0.63l5.35,0.78c0.44589,0.05802 0.81808,0.36851 0.95512,0.79676c0.13704,0.42826 0.01425,0.89713 -0.31512,1.20324l-3.87,3.78c-0.26659,0.25951 -0.38977,0.63279 -0.33,1l0.91,5.34c0.0725,0.43383 -0.10662,0.87135 -0.46252,1.12981c-0.35591,0.25846 -0.82737,0.29338 -1.21748,0.09019l-4.79,-2.52c-0.33761,-0.17956 -0.74239,-0.17956 -1.08,0l-4.79,2.52c-0.3901,0.20319 -0.86157,0.16826 -1.21748,-0.09019c-0.35591,-0.25846 -0.53502,-0.69597 -0.46252,-1.12981l0.91,-5.34c0.05977,-0.36721 -0.06341,-0.74049 -0.33,-1l-3.87,-3.78c-0.32937,-0.30611 -0.45216,-0.77498 -0.31512,-1.20324c0.13704,-0.42826 0.50923,-0.73874 0.95512,-0.79676l5.35,-0.78c0.37933,-0.05191 0.70861,-0.28764 0.88,-0.63l2.39,-4.85c0.1955,-0.39571 0.59863,-0.64619 1.04,-0.64619c0.44137,0 0.8445,0.25048 1.04,0.64619z" fill="#feba4e"></path><path d="M41.68,10.4c1.11677,-0.17973 2.07585,-0.89251 2.57,-1.91c0.20614,-0.33201 0.5692,-0.53393 0.96,-0.53393c0.3908,0 0.75386,0.20192 0.96,0.53393c0.48589,0.99547 1.41903,1.69811 2.51,1.89c0.3815,0.08074 0.69265,0.35576 0.81965,0.72445c0.127,0.3687 0.0512,0.77699 -0.19965,1.07555c-0.77868,0.78996 -1.12867,1.90693 -0.94,3c0.03247,0.38839 -0.1393,0.76573 -0.45352,0.9963c-0.31423,0.23057 -0.72572,0.28121 -1.08648,0.1337c-0.99261,-0.50581 -2.16739,-0.50581 -3.16,0c-0.35938,0.15475 -0.77347,0.11073 -1.09228,-0.11612c-0.31881,-0.22685 -0.49613,-0.60363 -0.46772,-0.99388c0.16818,-1.1026 -0.2039,-2.21883 -1,-3c-0.24505,-0.29483 -0.32228,-0.69451 -0.2047,-1.0594c0.11758,-0.3649 0.41362,-0.6443 0.7847,-0.7406z" fill="#fed872"></path><path d="M84.35,44.33c-0.26234,-0.0011 -0.51374,-0.10526 -0.7,-0.29c-1.62077,-1.62374 -3.82079,-2.5362 -6.115,-2.5362c-2.29421,0 -4.49423,0.91246 -6.115,2.5362c-0.39212,0.39212 -1.02788,0.39212 -1.42,0c-0.39212,-0.39212 -0.39212,-1.02788 0,-1.42c4.15893,-4.15817 10.90107,-4.15817 15.06,0c0.28846,0.28609 0.37516,0.71827 0.21937,1.09348c-0.15579,0.37521 -0.52311,0.61888 -0.92937,0.61652z" fill="#3499ff"></path><path d="M20.63,49.15c-0.55228,0 -1,-0.44772 -1,-1c-0.01097,-4.76329 -3.86673,-8.62351 -8.63,-8.64c-0.55228,0 -1,-0.44772 -1,-1c0,-0.55228 0.44772,-1 1,-1c5.86784,0.0165 10.61901,4.77215 10.63,10.64c0,0.55228 -0.44772,1 -1,1z" fill="#35cfbe"></path><path d="M10.21,65.49h-3.46c-0.55228,0 -1,-0.44772 -1,-1c0,-0.55228 0.44772,-1 1,-1h3.46c0.55228,0 1,0.44772 1,1c0,0.55228 -0.44772,1 -1,1z" fill="#3499ff"></path><path d="M1,54.15c-0.55228,0 -1,-0.44772 -1,-1v-2.15c0,-0.55228 0.44772,-1 1,-1c0.55228,0 1,0.44772 1,1v2.17c-0.01089,0.54446 -0.45543,0.98011 -1,0.98z" fill="#feba4e"></path><path d="M26.36,27.75h-1.93c-0.55228,0 -1,-0.44772 -1,-1c0,-0.55228 0.44772,-1 1,-1h1.93c0.55228,0 1,0.44772 1,1c0,0.55228 -0.44772,1 -1,1z" fill="#4362a5"></path><path d="M74.29,59c-0.40444,-0.0017 -0.76805,-0.24685 -0.92127,-0.62115c-0.15322,-0.3743 -0.06589,-0.80404 0.22127,-1.08885l2.51,-2.51c0.39004,-0.38772 1.01996,-0.38772 1.41,0c0.18931,0.18777 0.2958,0.44336 0.2958,0.71c0,0.26664 -0.10649,0.52223 -0.2958,0.71c-2.71,2.74 -2.66,2.8 -3.22,2.8z" fill="#35cfbe"></path><path d="M65.5,33.88c-0.55,0 -0.6,-0.18 -2.56,-2.14c-0.39212,-0.39212 -0.39212,-1.02788 0,-1.42c0.39212,-0.39212 1.02788,-0.39212 1.42,0l1.85,1.85c0.28846,0.28609 0.37516,0.71827 0.21937,1.09348c-0.15579,0.37521 -0.52311,0.61888 -0.92937,0.61652z" fill="#ed0c0c"></path><path d="M84.35,69.19h-3.35c-0.55228,0 -1,-0.44772 -1,-1c0,-0.55228 0.44772,-1 1,-1h3.38c0.55228,0 1,0.44772 1,1c0,0.55228 -0.44772,1 -1,1z" fill="#4362a5"></path><path d="M95,56.37c-0.55228,0 -1,-0.44772 -1,-1v-2.22c0,-0.55228 0.44772,-1 1,-1c0.55228,0 1,0.44772 1,1v2.22c0,0.55228 -0.44772,1 -1,1z" fill="#feba4e"></path><path d="M8.48,28.58h-3c-0.55228,0 -1,-0.44772 -1,-1c0,-0.55228 0.44772,-1 1,-1h3c0.55228,0 1,0.44772 1,1c0,0.55228 -0.44772,1 -1,1z" fill="#ed0c0c"></path><path d="M78,82.39c-0.97143,-0.56678 -2.11303,-0.76886 -3.22,-0.57c-13.66,-35.38 -12.78,-33.06 -22.85,-59.2c0.92266,-0.38327 1.45494,-1.35633 1.28,-2.34c-1,-5.73 -1,-5.38 -0.87,-5.48l3.87,-3.8c0.57466,-0.57722 0.77575,-1.42862 0.52008,-2.20195c-0.25567,-0.77334 -0.92461,-1.3371 -1.73008,-1.45805l-5.36,-0.78c-0.12,0 0.06,0.29 -2.51,-4.94c-0.36794,-0.73417 -1.11879,-1.19773 -1.94,-1.19773c-0.82121,0 -1.57206,0.46357 -1.94,1.19773c-2.56,5.21 -2.39,4.94 -2.51,4.94l-5.36,0.78c-0.79858,0.13316 -1.45563,0.70172 -1.70215,1.47288c-0.24652,0.77116 -0.0411,1.61542 0.53215,2.18712l3.87,3.78c0.1,0.1 0.12,-0.27 -0.87,5.48c-0.11909,0.7017 0.1168,1.41686 0.63,1.91c-2.5,6.68 1.29,-3.39 -22.19,59.06c-2.55293,-0.3852 -4.97191,1.26045 -5.55112,3.77647c-0.57921,2.51602 0.87673,5.05371 3.34112,5.82353c20.66519,6.21274 42.67102,6.42083 63.45,0.6c1.91343,-0.5415 3.31563,-2.17752 3.55798,-4.15127c0.24235,-1.97375 -0.7224,-3.9004 -2.44798,-4.88873zM59.05,46.62c-3.05295,-1.43033 -5.94576,-3.18009 -8.63,-5.22c-1.85221,-1.40153 -3.60322,-2.932 -5.24,-4.58c-2.75558,-2.79897 -5.16607,-5.91783 -7.18,-9.29c0,-0.1 -0.06,0.13 1.79,-4.77c0.20303,-0.03959 0.39869,-0.11043 0.58,-0.21c5.05,-2.67 4.8,-2.55 4.91,-2.55l4.4,2.31zM39.48,13.37c-4.21,-4.1 -4,-3.81 -3.92,-3.94c0.08,-0.13 -0.32,0 5.49,-0.89c0.70288,-0.09884 1.31034,-0.54131 1.62,-1.18l2.4,-4.85c0.02228,-0.05793 0.07794,-0.09615 0.14,-0.09615c0.06206,0 0.11772,0.03822 0.14,0.09615l2.4,4.85c0.30966,0.63869 0.91712,1.08116 1.62,1.18c5.81,0.85 5.44,0.75 5.49,0.89c0.05,0.14 0.32,-0.19 -3.92,3.94c-0.50804,0.49606 -0.73983,1.21013 -0.62,1.91c0.86,5 1,5.41 0.85,5.49c-0.15,0.08 0.27,0.25 -5,-2.51c-0.62566,-0.33069 -1.37434,-0.33069 -2,0l-3.43,1.8v0c-1.48,0.77 -1.42,0.78 -1.53,0.7c-0.11,-0.08 -0.15,0.29 0.85,-5.49c0.12665,-0.68994 -0.08962,-1.39842 -0.58,-1.9zM37.09,29.9c5.5378,8.62605 13.55565,15.37499 23,19.36c0,0.1 0.76,2 9.25,24c-16.05587,1.45525 -31.77183,-5.2367 -41.85,-17.82zM26.68,57.58c10.65493,12.68435 26.90059,19.268 43.38,17.58l2.76,7.16c-18.12713,4.76541 -37.20137,4.57546 -55.23,-0.55zM14,88.94c-1.55744,-0.46944 -2.43944,-2.11256 -1.97,-3.67c0.46944,-1.55744 2.11256,-2.43944 3.67,-1.97c5.62229,1.6867 11.37561,2.90092 17.2,3.63c-1.47807,1.59812 -1.73025,3.97757 -0.62,5.85c-6.19062,-0.76281 -12.30571,-2.04738 -18.28,-3.84zM52.72,93.46c-5.4685,0.32199 -10.95326,0.24178 -16.41,-0.24c-1.56979,-0.12785 -2.76228,-1.4663 -2.70883,-3.04038c0.05345,-1.57408 1.33399,-2.82855 2.90883,-2.84962c5.44974,0.49262 10.92943,0.56283 16.39,0.21c1.05921,-0.26121 2.17923,0.01133 3,0.73c0.81086,0.80882 1.09047,2.00875 0.72065,3.09269c-0.36982,1.08394 -1.32452,1.86275 -2.46065,2.00731c-0.08,0.02 -1.37,0.09 -1.43,0.09zM78.11,88.14c-0.37999,0.67967 -1.01818,1.17724 -1.77,1.38c-5.97758,1.67313 -12.08605,2.83729 -18.26,3.48c1.15229,-1.85785 0.94046,-4.25321 -0.52,-5.88c5.81774,-0.61392 11.57428,-1.71105 17.21,-3.28c1.1522,-0.32815 2.38827,0.07565 3.12454,1.02071c0.73627,0.94506 0.82546,2.24235 0.22546,3.27929z" fill="#302d3d"></path><path d="M70,42.66c-0.39212,0.38936 -0.39436,1.02288 -0.005,1.415c0.38936,0.39212 1.02288,0.39436 1.415,0.005c1.62077,-1.62374 3.82079,-2.5362 6.115,-2.5362c2.29421,0 4.49423,0.91246 6.115,2.5362c0.39212,0.38936 1.02564,0.38712 1.415,-0.005c0.38936,-0.39212 0.38712,-1.02564 -0.005,-1.415c-1.9942,-1.99869 -4.7016,-3.12192 -7.525,-3.12192c-2.8234,0 -5.5308,1.12323 -7.525,3.12192z" fill="#302d3d"></path><path d="M11,39.55c4.77108,0.0055 8.63898,3.86893 8.65,8.64c0,0.55228 0.44772,1 1,1c0.55228,0 1,-0.44772 1,-1c-0.01102,-5.87564 -4.77435,-10.6345 -10.65,-10.64c-0.55228,0 -1,0.44772 -1,1c0,0.55228 0.44772,1 1,1z" fill="#302d3d"></path><path d="M11.21,64.53c0,-0.55228 -0.44772,-1 -1,-1h-3.45c-0.55228,0 -1,0.44772 -1,1c0,0.55228 0.44772,1 1,1h3.45c0.55228,0 1,-0.44772 1,-1z" fill="#302d3d"></path><path d="M1,50c-0.55228,0 -1,0.44772 -1,1v2.17c0,0.55228 0.44772,1 1,1c0.55228,0 1,-0.44772 1,-1v-2.17c0,-0.55228 -0.44772,-1 -1,-1z" fill="#302d3d"></path><path d="M24.43,27.79h1.93c0.55228,0 1,-0.44772 1,-1c0,-0.55228 -0.44772,-1 -1,-1h-1.93c-0.55228,0 -1,0.44772 -1,1c0,0.55228 0.44772,1 1,1z" fill="#302d3d"></path><path d="M75,58.78l2.51,-2.5c0.18931,-0.18777 0.2958,-0.44336 0.2958,-0.71c0,-0.26664 -0.10649,-0.52223 -0.2958,-0.71c-0.39004,-0.38772 -1.01996,-0.38772 -1.41,0l-2.51,2.51c-0.28846,0.28609 -0.37516,0.71827 -0.21937,1.09348c0.15579,0.37521 0.52311,0.61888 0.92937,0.61652c0.26377,-0.00376 0.51537,-0.11159 0.7,-0.3z" fill="#302d3d"></path><path d="M64.79,33.63c0.39212,0.39212 1.02788,0.39212 1.42,0c0.39212,-0.39212 0.39212,-1.02788 0,-1.42l-1.85,-1.85c-0.39212,-0.39212 -1.02788,-0.39212 -1.42,0c-0.39212,0.39212 -0.39212,1.02788 0,1.42z" fill="#302d3d"></path><path d="M84.35,67.23h-3.35c-0.55228,0 -1,0.44772 -1,1c0,0.55228 0.44772,1 1,1h3.38c0.55228,0 1,-0.44772 1,-1c0,-0.55228 -0.44772,-1 -1,-1z" fill="#302d3d"></path><path d="M95,52.19c-0.55228,0 -1,0.44772 -1,1v2.22c0,0.55228 0.44772,1 1,1c0.55228,0 1,-0.44772 1,-1v-2.22c0,-0.55228 -0.44772,-1 -1,-1z" fill="#302d3d"></path><path d="M9.48,27.62c0,-0.55228 -0.44772,-1 -1,-1h-3c-0.55228,0 -1,0.44772 -1,1c0,0.55228 0.44772,1 1,1h3c0.55228,0 1,-0.44772 1,-1z" fill="#302d3d"></path></g></g></g></svg>